<?xml version="1.0" encoding="UTF-8" standalone="no"?>
<svg width="58px" height="32px" viewBox="0 0 58 32" version="1.1" xmlns="http://www.w3.org/2000/svg" xmlns:xlink="http://www.w3.org/1999/xlink">
    <!-- Generator: Sketch 42 (36781) - http://www.bohemiancoding.com/sketch -->
    <title>Hair</title>
    <desc>Created with Sketch.</desc>
    <defs></defs>
    <g id="Page-1" stroke="none" stroke-width="1" fill="none" fill-rule="evenodd">
        <g id="Artboard-2" transform="translate(-98.000000, -68.000000)">
            <g id="Hair" transform="translate(126.500000, 84.000000) scale(-1, 1) translate(-126.500000, -84.000000) translate(98.000000, 68.000000)">
                <path d="M46.8012211,13.884197 C46.9398845,13.3073083 47.0120833,12.7226759 47.0120833,12.1343787 C47.0120833,5.57822426 38.9667844,0 28.9696841,0 C19.9092231,0 15.4992729,4.8726085 11.0766422,10.0642474 C6.65401155,15.2558863 0.000755033264,8.22508251 0.000755033264,8.22508251 C0.000755033264,8.22508251 1.13340684,15.1500818 3.71679232,17.7702796 C5.18062079,19.2549671 8.3052806,22.7196408 14.4067389,23.9341892 C20.5081973,25.1487375 24.319567,24.7915517 28.0482429,24.7915517 C33.9399287,24.7915517 39.4737488,22.6725398 43.0252057,19.5901715 L46.063592,31.7551843 L47.5711204,31.7608082 C47.5711204,31.7608082 44.9469616,27.1345734 47.5711204,28.6542993 C50.1952791,30.1740253 54.6470473,27.4390552 52.7132126,27.8897053 C50.7793779,28.3403554 47.6146784,26.7341995 47.6146784,26.7341995 C47.6146784,26.7341995 44.082546,23.3021411 48.095924,26.2006501 C52.109302,29.0991592 58.8860839,22.5398066 56.2714797,23.7701619 C53.6568756,25.0005171 50.1046504,22.0119063 50.1046504,22.0119063 C50.1046504,22.0119063 49.837682,18.3838271 49.837682,15.8654966 C49.837682,13.8586853 47.6784005,13.81795 46.8012211,13.884197 Z" id="Combined-Shape" fill="#FFDB82"></path>
                <path d="M43.1518021,4.7688164 C43.1518021,4.7688164 22.7042766,41.3697096 0.196399366,8.8604378" id="Path-4" stroke="#F6D16E" stroke-width="0.5"></path>
                <path d="M37.1546489,1.47025592 C33.9418781,-0.0277017168 25.8614289,4.23954698 23.9283718,10.8308082 C21.9953147,17.4220694 10.021913,19.8727659 0.158256817,8.53187975" id="Path-5" stroke="#FDD46B" stroke-width="0.5"></path>
            </g>
        </g>
    </g>
</svg>