<?xml version="1.0" encoding="UTF-8" standalone="no"?>
<svg width="57px" height="51px" viewBox="0 0 57 51" version="1.1" xmlns="http://www.w3.org/2000/svg" xmlns:xlink="http://www.w3.org/1999/xlink">
    <!-- Generator: Sketch 42 (36781) - http://www.bohemiancoding.com/sketch -->
    <title>Hair</title>
    <desc>Created with Sketch.</desc>
    <defs></defs>
    <g id="Page-1" stroke="none" stroke-width="1" fill="none" fill-rule="evenodd">
        <g id="Artboard-Copy" transform="translate(-20.000000, -37.000000)" stroke="#C6B332" stroke-width="0.5" fill="#FBF6D2">
            <path d="M21.1503722,79.6743694 C20.8256216,80.271633 21.0326504,80.4851934 21.6291229,80.1419681 L22.8863352,79.4185363 L23.7426946,77.176546 L23.7426946,86.4065148 C23.7426946,87.0862319 24.0813229,87.2009688 24.4926149,86.6710676 L26.5969433,83.9598886 L27.157264,80.7558109 L27.157264,77.176546 L27.9836214,80.3650968 C28.1552208,81.0272236 28.4852366,81.0375786 28.7149472,80.4041772 L30.9488565,74.2444225 L30.2843815,72.0239282 C30.2843815,72.0239282 35.814383,69.8500719 37.739716,67.9298441 C39.6650491,66.0096163 39.9284507,62.4054316 39.9284507,62.4054316 C39.9284507,62.4054316 41.0405156,53.8528456 43.1072993,53.9891314 C45.174083,54.1254171 56.2627719,54.8964123 56.2627719,54.8964123 C56.2627719,54.8964123 73.2432269,54.0847145 75.4624848,52.7082869 C77.6817426,51.3318592 72.4451446,48.4399027 70.3582568,46.1541134 C68.2713691,43.868324 65.270986,41.8407315 65.270986,41.8407315 C64.7248061,41.4524229 63.758286,40.9370868 63.1378589,40.7040436 C63.1378589,40.7040436 58.7869542,38.9979164 56.2627719,38.5298518 C53.7385896,38.0617873 47.5944224,38.0432158 47.5944224,38.0432158 C47.5944224,38.0432158 44.6008461,37.7852483 39.9284507,38.5298518 C35.2560553,39.2744554 31.750944,40.4020253 30.2843815,41.1376366 C26.6842484,42.9434228 25.2725237,51.4639911 25.2725237,51.4639911 L23.6130227,58.7869461 L22.7851461,65.6309561 L22.0247289,68.9239854 C22.0247289,68.9239854 21.7249126,70.1310726 21.765385,71.4285686 C21.8058574,72.7260646 21.1209853,72.20882 21.765385,72.9109191 C23.9345791,75.2743427 21.1503722,79.6743694 21.1503722,79.6743694 Z" id="Hair"></path>
        </g>
    </g>
</svg>